<svg width="3866" height="3985" viewBox="0 0 3866 3985" fill="none" xmlns="http://www.w3.org/2000/svg">
<path d="M2803.91 61.6251C2802.59 77.0151 2726.23 284.965 2794.2 304.378C2862.17 323.79 2885.42 233.636 2949.56 216.987C2994.71 218.313 3008.07 235.357 3017.53 284.958C3013.34 344.196 2909.39 365.448 2852.46 372.349C2812.92 377.141 2726.23 343.226 2677.67 265.537C2629.12 187.849 2609.59 106.985 2658.25 32.4948C2702.65 -31.8485 2808.26 10.8321 2803.91 61.6251Z" fill="#E55A1F"/>
<path d="M1085.22 537.415C1014.59 986.047 992.243 1281.03 968.697 1848.28C892.076 1940.03 866.176 1999.18 832.756 2110.45C821.46 2268.2 832.756 2353.37 891.017 2498.86C969.137 2634.67 1029.53 2695.77 1153.19 2790.16C1296.22 2886.41 1377.19 2920.17 1522.17 2964.94C1706.4 3001.69 1808.79 3015.01 1988.26 3013.49C2171.3 3002.58 2270.42 2987.04 2434.92 2926.1C2599.84 2854.7 2670.94 2805.66 2784.49 2712.48C2882.59 2621.68 2922.5 2562.97 2978.69 2450.31C3017.1 2325.61 3029.75 2254.25 3007.82 2120.16C2976.79 1987.56 2955.41 1955.23 2891.3 1848.28C2837.45 999.139 2813.52 776.197 2774.78 537.415C2754.35 474.181 2739.28 449.213 2706.81 420.894C2659.5 412.162 2621.85 452.352 2551.44 537.415C2330.21 925.231 2254.91 1111.13 2124.2 1440.46C1965.99 1431.13 1881.21 1432.8 1735.8 1440.46C1542.04 953.781 1437.8 744.119 1260 488.865C1224.17 454.148 1203.49 436.959 1162.9 420.894C1116.59 450.081 1102.85 478.956 1085.22 537.415Z" fill="#1A1A2E" stroke="white" stroke-width="80"/>
<ellipse cx="1376.52" cy="2246.38" rx="339.854" ry="339.854" fill="white"/>
<ellipse cx="2502.89" cy="2246.38" rx="339.854" ry="339.854" fill="white"/>
<line x1="2371.64" y1="2024.15" x2="2371.64" y2="2410.24" stroke="#E55A1F" stroke-width="80" stroke-linecap="round"/>
<line x1="1484.49" y1="2024.22" x2="1484.49" y2="2410.3" stroke="#E55A1F" stroke-width="80" stroke-linecap="round"/>
<line x1="767.08" y1="2454.65" x2="147.676" y2="2506.27" stroke="#E55A1F" stroke-width="80" stroke-linecap="round"/>
<line x1="40" y1="-40" x2="661.551" y2="-40" transform="matrix(0.996546 0.0830455 0.0830454 -0.996546 3056.36 2411.47)" stroke="#E55A1F" stroke-width="80" stroke-linecap="round"/>
<line x1="260.886" y1="2941.33" x2="847.98" y2="2682.31" stroke="#E55A1F" stroke-width="80" stroke-linecap="round"/>
<line x1="40" y1="-40" x2="681.69" y2="-40" transform="matrix(-0.914918 -0.40364 -0.40364 0.914918 3619.55 2994.07)" stroke="#E55A1F" stroke-width="80" stroke-linecap="round"/>
<mask id="path-11-outside-1_12_60" maskUnits="userSpaceOnUse" x="-0.0078125" y="3271.61" width="3866" height="649" fill="black">
<rect fill="white" x="-0.0078125" y="3271.61" width="3866" height="649"/>
<path d="M318.8 3406.21C368.8 3406.21 407.6 3422.21 435.2 3454.21C462.8 3485.81 476.6 3531.01 476.6 3589.81V3834.61H357.8V3593.41C357.8 3563.81 351 3541.61 337.4 3526.81C324.2 3512.01 305.6 3504.61 281.6 3504.61C256.8 3504.61 236.8 3512.61 221.6 3528.61C206.4 3544.21 198.8 3567.81 198.8 3599.41V3834.61H80V3414.61H195.2V3462.61C223.6 3425.01 264.8 3406.21 318.8 3406.21ZM714.753 3840.01C679.953 3840.01 648.553 3832.81 620.553 3818.41C592.553 3804.01 570.553 3784.01 554.553 3758.41C538.953 3732.81 531.153 3703.81 531.153 3671.41C531.153 3639.41 538.953 3610.61 554.553 3585.01C570.553 3559.41 592.353 3539.61 619.953 3525.61C647.953 3511.21 679.553 3504.01 714.753 3504.01C749.953 3504.01 781.553 3511.21 809.553 3525.61C837.553 3539.61 859.353 3559.41 874.953 3585.01C890.553 3610.21 898.353 3639.01 898.353 3671.41C898.353 3703.81 890.553 3732.81 874.953 3758.41C859.353 3784.01 837.553 3804.01 809.553 3818.41C781.553 3832.81 749.953 3840.01 714.753 3840.01ZM714.753 3749.41C734.753 3749.41 751.153 3742.61 763.953 3729.01C776.753 3715.01 783.153 3695.81 783.153 3671.41C783.153 3647.41 776.753 3628.61 763.953 3615.01C751.153 3601.41 734.753 3594.61 714.753 3594.61C694.753 3594.61 678.353 3601.41 665.553 3615.01C652.753 3628.61 646.353 3647.41 646.353 3671.41C646.353 3695.81 652.753 3715.01 665.553 3729.01C678.353 3742.61 694.753 3749.41 714.753 3749.41ZM1374.76 3504.01C1414.76 3504.01 1446.56 3516.01 1470.16 3540.01C1494.16 3564.01 1506.16 3600.21 1506.16 3648.61V3834.61H1392.16V3667.21C1392.16 3644.41 1387.76 3627.61 1378.96 3616.81C1370.56 3606.01 1358.56 3600.61 1342.96 3600.61C1325.76 3600.61 1311.96 3606.61 1301.56 3618.61C1291.16 3630.61 1285.96 3648.81 1285.96 3673.21V3834.61H1171.96V3667.21C1171.96 3622.81 1155.56 3600.61 1122.76 3600.61C1105.16 3600.61 1091.16 3606.61 1080.76 3618.61C1070.36 3630.61 1065.16 3648.81 1065.16 3673.21V3834.61H951.163V3509.41H1059.76V3543.61C1071.76 3530.41 1085.96 3520.61 1102.36 3514.21C1119.16 3507.41 1137.36 3504.01 1156.96 3504.01C1179.76 3504.01 1200.16 3508.21 1218.16 3516.61C1236.16 3525.01 1250.76 3537.81 1261.96 3555.01C1274.76 3538.61 1290.96 3526.01 1310.56 3517.21C1330.16 3508.41 1351.56 3504.01 1374.76 3504.01ZM1822.32 3406.21C1872.32 3406.21 1911.12 3422.21 1938.72 3454.21C1966.32 3485.81 1980.12 3531.01 1980.12 3589.81V3834.61H1861.32V3593.41C1861.32 3563.81 1854.52 3541.61 1840.92 3526.81C1827.72 3512.01 1809.12 3504.61 1785.12 3504.61C1760.32 3504.61 1740.32 3512.61 1725.12 3528.61C1709.92 3544.21 1702.32 3567.81 1702.32 3599.41V3834.61H1583.52V3414.61H1698.72V3462.61C1727.12 3425.01 1768.32 3406.21 1822.32 3406.21ZM2218.27 3840.01C2183.47 3840.01 2152.07 3832.81 2124.07 3818.41C2096.07 3804.01 2074.07 3784.01 2058.07 3758.41C2042.47 3732.81 2034.67 3703.81 2034.67 3671.41C2034.67 3639.41 2042.47 3610.61 2058.07 3585.01C2074.07 3559.41 2095.87 3539.61 2123.47 3525.61C2151.47 3511.21 2183.07 3504.01 2218.27 3504.01C2253.47 3504.01 2285.07 3511.21 2313.07 3525.61C2341.07 3539.61 2362.87 3559.41 2378.47 3585.01C2394.07 3610.21 2401.87 3639.01 2401.87 3671.41C2401.87 3703.81 2394.07 3732.81 2378.47 3758.41C2362.87 3784.01 2341.07 3804.01 2313.07 3818.41C2285.07 3832.81 2253.47 3840.01 2218.27 3840.01ZM2218.27 3749.41C2238.27 3749.41 2254.67 3742.61 2267.47 3729.01C2280.27 3715.01 2286.67 3695.81 2286.67 3671.41C2286.67 3647.41 2280.27 3628.61 2267.47 3615.01C2254.67 3601.41 2238.27 3594.61 2218.27 3594.61C2198.27 3594.61 2181.87 3601.41 2169.07 3615.01C2156.27 3628.61 2149.87 3647.41 2149.87 3671.41C2149.87 3695.81 2156.27 3715.01 2169.07 3729.01C2181.87 3742.61 2198.27 3749.41 2218.27 3749.41ZM2878.28 3504.01C2918.28 3504.01 2950.08 3516.01 2973.68 3540.01C2997.68 3564.01 3009.68 3600.21 3009.68 3648.61V3834.61H2895.68V3667.21C2895.68 3644.41 2891.28 3627.61 2882.48 3616.81C2874.08 3606.01 2862.08 3600.61 2846.48 3600.61C2829.28 3600.61 2815.48 3606.61 2805.08 3618.61C2794.68 3630.61 2789.48 3648.81 2789.48 3673.21V3834.61H2675.48V3667.21C2675.48 3622.81 2659.08 3600.61 2626.28 3600.61C2608.68 3600.61 2594.68 3606.61 2584.28 3618.61C2573.88 3630.61 2568.68 3648.81 2568.68 3673.21V3834.61H2454.68V3509.41H2563.28V3543.61C2575.28 3530.41 2589.48 3520.61 2605.88 3514.21C2622.68 3507.41 2640.88 3504.01 2660.48 3504.01C2683.28 3504.01 2703.68 3508.21 2721.68 3516.61C2739.68 3525.01 2754.28 3537.81 2765.48 3555.01C2778.28 3538.61 2794.48 3526.01 2814.08 3517.21C2833.68 3508.41 2855.08 3504.01 2878.28 3504.01ZM3129.63 3840.01C3110.43 3840.01 3094.23 3833.61 3081.03 3820.81C3067.83 3808.01 3061.23 3791.81 3061.23 3772.21C3061.23 3752.21 3067.63 3736.01 3080.43 3723.61C3093.63 3711.21 3110.03 3705.01 3129.63 3705.01C3149.63 3705.01 3166.03 3711.21 3178.83 3723.61C3191.63 3736.01 3198.03 3752.21 3198.03 3772.21C3198.03 3791.81 3191.43 3808.01 3178.23 3820.81C3165.43 3833.61 3149.23 3840.01 3129.63 3840.01ZM3251.55 3509.41H3365.55V3834.61H3251.55V3509.41ZM3308.55 3473.41C3287.75 3473.41 3270.95 3467.61 3258.15 3456.01C3245.35 3444.41 3238.95 3430.01 3238.95 3412.81C3238.95 3395.61 3245.35 3381.21 3258.15 3369.61C3270.95 3358.01 3287.75 3352.21 3308.55 3352.21C3329.35 3352.21 3346.15 3357.81 3358.95 3369.01C3371.75 3379.81 3378.15 3393.81 3378.15 3411.01C3378.15 3429.01 3371.75 3444.01 3358.95 3456.01C3346.15 3467.61 3329.35 3473.41 3308.55 3473.41ZM3785.24 3389.41V3834.61H3676.64V3802.21C3655.44 3827.41 3623.64 3840.01 3581.24 3840.01C3551.64 3840.01 3524.64 3833.21 3500.24 3819.61C3475.84 3805.61 3456.44 3785.81 3442.04 3760.21C3428.04 3734.61 3421.04 3705.01 3421.04 3671.41C3421.04 3637.81 3428.04 3608.41 3442.04 3583.21C3456.44 3557.61 3475.84 3538.01 3500.24 3524.41C3524.64 3510.81 3551.64 3504.01 3581.24 3504.01C3620.04 3504.01 3650.04 3515.21 3671.24 3537.61V3389.41H3785.24ZM3605.24 3749.41C3624.84 3749.41 3641.04 3742.61 3653.84 3729.01C3666.64 3715.01 3673.04 3695.81 3673.04 3671.41C3673.04 3647.41 3666.64 3628.61 3653.84 3615.01C3641.44 3601.41 3625.24 3594.61 3605.24 3594.61C3585.24 3594.61 3568.84 3601.41 3556.04 3615.01C3543.24 3628.61 3536.84 3647.41 3536.84 3671.41C3536.84 3695.81 3543.24 3715.01 3556.04 3729.01C3568.84 3742.61 3585.24 3749.41 3605.24 3749.41Z"/>
</mask>
<path d="M318.8 3406.21C368.8 3406.21 407.6 3422.21 435.2 3454.21C462.8 3485.81 476.6 3531.01 476.6 3589.81V3834.61H357.8V3593.41C357.8 3563.81 351 3541.61 337.4 3526.81C324.2 3512.01 305.6 3504.61 281.6 3504.61C256.8 3504.61 236.8 3512.61 221.6 3528.61C206.4 3544.21 198.8 3567.81 198.8 3599.41V3834.61H80V3414.61H195.2V3462.61C223.6 3425.01 264.8 3406.21 318.8 3406.21ZM714.753 3840.01C679.953 3840.01 648.553 3832.81 620.553 3818.41C592.553 3804.01 570.553 3784.01 554.553 3758.41C538.953 3732.81 531.153 3703.81 531.153 3671.41C531.153 3639.41 538.953 3610.61 554.553 3585.01C570.553 3559.41 592.353 3539.61 619.953 3525.61C647.953 3511.21 679.553 3504.01 714.753 3504.01C749.953 3504.01 781.553 3511.21 809.553 3525.61C837.553 3539.61 859.353 3559.41 874.953 3585.01C890.553 3610.21 898.353 3639.01 898.353 3671.41C898.353 3703.81 890.553 3732.81 874.953 3758.41C859.353 3784.01 837.553 3804.01 809.553 3818.41C781.553 3832.81 749.953 3840.01 714.753 3840.01ZM714.753 3749.41C734.753 3749.41 751.153 3742.61 763.953 3729.01C776.753 3715.01 783.153 3695.81 783.153 3671.41C783.153 3647.41 776.753 3628.61 763.953 3615.01C751.153 3601.41 734.753 3594.61 714.753 3594.61C694.753 3594.61 678.353 3601.41 665.553 3615.01C652.753 3628.61 646.353 3647.41 646.353 3671.41C646.353 3695.81 652.753 3715.01 665.553 3729.01C678.353 3742.61 694.753 3749.41 714.753 3749.41ZM1374.76 3504.01C1414.76 3504.01 1446.56 3516.01 1470.16 3540.01C1494.16 3564.01 1506.16 3600.21 1506.16 3648.61V3834.61H1392.16V3667.21C1392.16 3644.41 1387.76 3627.61 1378.96 3616.81C1370.56 3606.01 1358.56 3600.61 1342.96 3600.61C1325.76 3600.61 1311.96 3606.61 1301.56 3618.61C1291.16 3630.61 1285.96 3648.81 1285.96 3673.21V3834.61H1171.96V3667.21C1171.96 3622.81 1155.56 3600.61 1122.76 3600.61C1105.16 3600.61 1091.16 3606.61 1080.76 3618.61C1070.36 3630.61 1065.16 3648.81 1065.16 3673.21V3834.61H951.163V3509.41H1059.76V3543.61C1071.76 3530.41 1085.96 3520.61 1102.36 3514.21C1119.16 3507.41 1137.36 3504.01 1156.96 3504.01C1179.76 3504.01 1200.16 3508.21 1218.16 3516.61C1236.16 3525.01 1250.76 3537.81 1261.96 3555.01C1274.76 3538.61 1290.96 3526.01 1310.56 3517.21C1330.16 3508.41 1351.56 3504.01 1374.76 3504.01ZM1822.32 3406.21C1872.32 3406.21 1911.12 3422.21 1938.72 3454.21C1966.32 3485.81 1980.12 3531.01 1980.12 3589.81V3834.61H1861.32V3593.41C1861.32 3563.81 1854.52 3541.61 1840.92 3526.81C1827.72 3512.01 1809.12 3504.61 1785.12 3504.61C1760.32 3504.61 1740.32 3512.61 1725.12 3528.61C1709.92 3544.21 1702.32 3567.81 1702.32 3599.41V3834.61H1583.52V3414.61H1698.72V3462.61C1727.12 3425.01 1768.32 3406.21 1822.32 3406.21ZM2218.27 3840.01C2183.47 3840.01 2152.07 3832.81 2124.07 3818.41C2096.07 3804.01 2074.07 3784.01 2058.07 3758.41C2042.47 3732.81 2034.67 3703.81 2034.67 3671.41C2034.67 3639.41 2042.47 3610.61 2058.07 3585.01C2074.07 3559.41 2095.87 3539.61 2123.47 3525.61C2151.47 3511.21 2183.07 3504.01 2218.27 3504.01C2253.47 3504.01 2285.07 3511.21 2313.07 3525.61C2341.07 3539.61 2362.87 3559.41 2378.47 3585.01C2394.07 3610.21 2401.87 3639.01 2401.87 3671.41C2401.87 3703.81 2394.07 3732.81 2378.47 3758.41C2362.87 3784.01 2341.07 3804.01 2313.07 3818.41C2285.07 3832.81 2253.47 3840.01 2218.27 3840.01ZM2218.27 3749.41C2238.27 3749.41 2254.67 3742.61 2267.47 3729.01C2280.27 3715.01 2286.67 3695.81 2286.67 3671.41C2286.67 3647.41 2280.27 3628.61 2267.47 3615.01C2254.67 3601.41 2238.27 3594.61 2218.27 3594.61C2198.27 3594.61 2181.87 3601.41 2169.07 3615.01C2156.27 3628.61 2149.87 3647.41 2149.87 3671.41C2149.87 3695.81 2156.27 3715.01 2169.07 3729.01C2181.87 3742.61 2198.27 3749.41 2218.27 3749.41ZM2878.28 3504.01C2918.28 3504.01 2950.08 3516.01 2973.68 3540.01C2997.68 3564.01 3009.68 3600.21 3009.68 3648.61V3834.61H2895.68V3667.21C2895.68 3644.41 2891.28 3627.61 2882.48 3616.81C2874.08 3606.01 2862.08 3600.61 2846.48 3600.61C2829.28 3600.61 2815.48 3606.61 2805.08 3618.61C2794.68 3630.61 2789.48 3648.81 2789.48 3673.21V3834.61H2675.48V3667.21C2675.48 3622.81 2659.08 3600.61 2626.28 3600.61C2608.68 3600.61 2594.68 3606.61 2584.28 3618.61C2573.88 3630.61 2568.68 3648.81 2568.68 3673.21V3834.61H2454.68V3509.41H2563.28V3543.61C2575.28 3530.41 2589.48 3520.61 2605.88 3514.21C2622.68 3507.41 2640.88 3504.01 2660.48 3504.01C2683.28 3504.01 2703.68 3508.21 2721.68 3516.61C2739.68 3525.01 2754.28 3537.81 2765.48 3555.01C2778.28 3538.61 2794.48 3526.01 2814.08 3517.21C2833.68 3508.41 2855.08 3504.01 2878.28 3504.01ZM3129.63 3840.01C3110.43 3840.01 3094.23 3833.61 3081.03 3820.81C3067.83 3808.01 3061.23 3791.81 3061.23 3772.21C3061.23 3752.21 3067.63 3736.01 3080.43 3723.61C3093.63 3711.21 3110.03 3705.01 3129.63 3705.01C3149.63 3705.01 3166.03 3711.21 3178.83 3723.61C3191.63 3736.01 3198.03 3752.21 3198.03 3772.21C3198.03 3791.81 3191.43 3808.01 3178.23 3820.81C3165.43 3833.61 3149.23 3840.01 3129.63 3840.01ZM3251.55 3509.41H3365.55V3834.61H3251.55V3509.41ZM3308.55 3473.41C3287.75 3473.41 3270.95 3467.61 3258.15 3456.01C3245.35 3444.41 3238.95 3430.01 3238.95 3412.81C3238.95 3395.61 3245.35 3381.21 3258.15 3369.61C3270.95 3358.01 3287.75 3352.21 3308.55 3352.21C3329.35 3352.21 3346.15 3357.81 3358.95 3369.01C3371.75 3379.81 3378.15 3393.81 3378.15 3411.01C3378.15 3429.01 3371.75 3444.01 3358.95 3456.01C3346.15 3467.61 3329.35 3473.41 3308.55 3473.41ZM3785.24 3389.41V3834.61H3676.64V3802.21C3655.44 3827.41 3623.64 3840.01 3581.24 3840.01C3551.64 3840.01 3524.64 3833.21 3500.24 3819.61C3475.84 3805.61 3456.44 3785.81 3442.04 3760.21C3428.04 3734.61 3421.04 3705.01 3421.04 3671.41C3421.04 3637.81 3428.04 3608.41 3442.04 3583.21C3456.44 3557.61 3475.84 3538.01 3500.24 3524.41C3524.64 3510.81 3551.64 3504.01 3581.24 3504.01C3620.04 3504.01 3650.04 3515.21 3671.24 3537.61V3389.41H3785.24ZM3605.24 3749.41C3624.84 3749.41 3641.04 3742.61 3653.84 3729.01C3666.64 3715.01 3673.04 3695.81 3673.04 3671.41C3673.04 3647.41 3666.64 3628.61 3653.84 3615.01C3641.44 3601.41 3625.24 3594.61 3605.24 3594.61C3585.24 3594.61 3568.84 3601.41 3556.04 3615.01C3543.24 3628.61 3536.84 3647.41 3536.84 3671.41C3536.84 3695.81 3543.24 3715.01 3556.04 3729.01C3568.84 3742.61 3585.24 3749.41 3605.24 3749.41Z" fill="#E55A1F"/>
<path d="M435.2 3454.21L374.62 3506.46L374.783 3506.65L374.947 3506.83L435.2 3454.21ZM476.6 3834.61V3914.61H556.6V3834.61H476.6ZM357.8 3834.61H277.8V3914.61H357.8V3834.61ZM337.4 3526.81L277.696 3580.06L278.092 3580.5L278.494 3580.94L337.4 3526.81ZM221.6 3528.61L278.898 3584.44L279.251 3584.08L279.6 3583.71L221.6 3528.61ZM198.8 3834.61V3914.61H278.8V3834.61H198.8ZM80 3834.61H0V3914.61H80V3834.61ZM80 3414.61V3334.61H0V3414.61H80ZM195.2 3414.61H275.2V3334.61H195.2V3414.61ZM195.2 3462.61H115.2V3701.26L259.037 3510.83L195.2 3462.61ZM318.8 3406.21V3486.21C350.228 3486.21 365.037 3495.35 374.62 3506.46L435.2 3454.21L495.78 3401.96C450.163 3349.07 387.372 3326.21 318.8 3326.21V3406.21ZM435.2 3454.21L374.947 3506.83C385.515 3518.94 396.6 3542.63 396.6 3589.81H476.6H556.6C556.6 3519.38 540.085 3452.68 495.453 3401.58L435.2 3454.21ZM476.6 3589.81H396.6V3834.61H476.6H556.6V3589.81H476.6ZM476.6 3834.61V3754.61H357.8V3834.61V3914.61H476.6V3834.61ZM357.8 3834.61H437.8V3593.41H357.8H277.8V3834.61H357.8ZM357.8 3593.41H437.8C437.8 3553.07 428.677 3507.91 396.306 3472.68L337.4 3526.81L278.494 3580.94C276.05 3578.28 275.764 3576.54 276.208 3577.99C276.745 3579.74 277.8 3584.48 277.8 3593.41H357.8ZM337.4 3526.81L397.104 3473.56C365.57 3438.2 323.191 3424.61 281.6 3424.61V3504.61V3584.61C285.44 3584.61 285.757 3585.2 283.977 3584.49C283.087 3584.14 281.932 3583.56 280.694 3582.69C279.453 3581.83 278.443 3580.89 277.696 3580.06L337.4 3526.81ZM281.6 3504.61V3424.61C237.859 3424.61 195.845 3439.57 163.6 3473.51L221.6 3528.61L279.6 3583.71C279.632 3583.67 279.422 3583.9 278.967 3584.21C278.507 3584.52 278.051 3584.75 277.711 3584.89C277.386 3585.02 277.418 3584.96 277.963 3584.86C278.528 3584.76 279.698 3584.61 281.6 3584.61V3504.61ZM221.6 3528.61L164.302 3472.78C129.103 3508.9 118.8 3556.33 118.8 3599.41H198.8H278.8C278.8 3589.76 279.99 3584.58 280.649 3582.53C281.191 3580.85 281.036 3582.24 278.898 3584.44L221.6 3528.61ZM198.8 3599.41H118.8V3834.61H198.8H278.8V3599.41H198.8ZM198.8 3834.61V3754.61H80V3834.61V3914.61H198.8V3834.61ZM80 3834.61H160V3414.61H80H0V3834.61H80ZM80 3414.61V3494.61H195.2V3414.61V3334.61H80V3414.61ZM195.2 3414.61H115.2V3462.61H195.2H275.2V3414.61H195.2ZM195.2 3462.61L259.037 3510.83C269.969 3496.35 285.714 3486.21 318.8 3486.21V3406.21V3326.21C243.886 3326.21 177.231 3353.67 131.363 3414.39L195.2 3462.61ZM620.553 3818.41L657.141 3747.27V3747.27L620.553 3818.41ZM554.553 3758.41L486.238 3800.04L486.473 3800.42L486.713 3800.81L554.553 3758.41ZM554.553 3585.01L486.713 3542.61L486.473 3542.99L486.238 3543.38L554.553 3585.01ZM619.953 3525.61L656.143 3596.95L656.342 3596.85L656.541 3596.75L619.953 3525.61ZM809.553 3525.61L772.965 3596.75L773.37 3596.96L773.776 3597.16L809.553 3525.61ZM874.953 3585.01L806.638 3626.64L806.784 3626.88L806.932 3627.12L874.953 3585.01ZM874.953 3758.41L806.638 3716.78L806.638 3716.78L874.953 3758.41ZM809.553 3818.41L772.965 3747.27V3747.27L809.553 3818.41ZM763.953 3729.01L822.209 3783.84L822.605 3783.42L822.995 3782.99L763.953 3729.01ZM763.953 3615.01L822.209 3560.18V3560.18L763.953 3615.01ZM665.553 3615.01L607.297 3560.18H607.297L665.553 3615.01ZM665.553 3729.01L606.511 3782.99L606.901 3783.42L607.297 3783.84L665.553 3729.01ZM714.753 3840.01V3760.01C691.319 3760.01 672.672 3755.25 657.141 3747.27L620.553 3818.41L583.965 3889.55C624.435 3910.36 668.588 3920.01 714.753 3920.01V3840.01ZM620.553 3818.41L657.141 3747.27C641.382 3739.16 630.419 3728.85 622.393 3716.01L554.553 3758.41L486.713 3800.81C510.687 3839.17 543.725 3868.86 583.965 3889.55L620.553 3818.41ZM554.553 3758.41L622.868 3716.78C615.526 3704.73 611.153 3690.35 611.153 3671.41H531.153H451.153C451.153 3717.26 462.38 3760.89 486.238 3800.04L554.553 3758.41ZM531.153 3671.41H611.153C611.153 3653.06 615.43 3638.85 622.868 3626.64L554.553 3585.01L486.238 3543.38C462.477 3582.37 451.153 3625.75 451.153 3671.41H531.153ZM554.553 3585.01L622.393 3627.41C630.473 3614.48 641.188 3604.54 656.143 3596.95L619.953 3525.61L583.763 3454.26C543.518 3474.68 510.633 3504.34 486.713 3542.61L554.553 3585.01ZM619.953 3525.61L656.541 3596.75C671.944 3588.83 690.759 3584.01 714.753 3584.01V3504.01V3424.01C668.347 3424.01 623.962 3433.59 583.365 3454.47L619.953 3525.61ZM714.753 3504.01V3584.01C738.747 3584.01 757.562 3588.83 772.965 3596.75L809.553 3525.61L846.141 3454.47C805.544 3433.59 761.159 3424.01 714.753 3424.01V3504.01ZM809.553 3525.61L773.776 3597.16C788.959 3604.75 799.213 3614.45 806.638 3626.64L874.953 3585.01L943.268 3543.38C919.493 3504.36 886.147 3474.46 845.33 3454.05L809.553 3525.61ZM874.953 3585.01L806.932 3627.12C813.979 3638.5 818.353 3652.45 818.353 3671.41H898.353H978.353C978.353 3625.57 967.128 3581.92 942.974 3542.9L874.953 3585.01ZM898.353 3671.41H818.353C818.353 3690.35 813.98 3704.73 806.638 3716.78L874.953 3758.41L943.268 3800.04C967.126 3760.89 978.353 3717.26 978.353 3671.41H898.353ZM874.953 3758.41L806.638 3716.78C799.09 3729.16 788.564 3739.24 772.965 3747.27L809.553 3818.41L846.141 3889.55C886.542 3868.77 919.616 3838.85 943.268 3800.04L874.953 3758.41ZM809.553 3818.41L772.965 3747.27C757.562 3755.19 738.747 3760.01 714.753 3760.01V3840.01V3920.01C761.159 3920.01 805.544 3910.43 846.141 3889.55L809.553 3818.41ZM714.753 3749.41V3829.41C755.064 3829.41 793.134 3814.73 822.209 3783.84L763.953 3729.01L705.697 3674.18C706.639 3673.18 708.622 3671.57 711.412 3670.41C714.08 3669.3 715.564 3669.41 714.753 3669.41V3749.41ZM763.953 3729.01L822.995 3782.99C852.792 3750.4 863.153 3709.88 863.153 3671.41H783.153H703.153C703.153 3676.72 702.447 3678.85 702.458 3678.81C702.474 3678.76 702.648 3678.26 703.1 3677.48C703.559 3676.69 704.172 3675.84 704.911 3675.03L763.953 3729.01ZM783.153 3671.41H863.153C863.153 3633.05 852.62 3592.49 822.209 3560.18L763.953 3615.01L705.697 3669.84C704.836 3668.92 704.101 3667.93 703.53 3666.97C702.967 3666.02 702.704 3665.33 702.621 3665.09C702.476 3664.66 703.153 3666.41 703.153 3671.41H783.153ZM763.953 3615.01L822.209 3560.18C793.134 3529.29 755.064 3514.61 714.753 3514.61V3594.61V3674.61C715.564 3674.61 714.08 3674.71 711.412 3673.61C708.622 3672.45 706.639 3670.84 705.697 3669.84L763.953 3615.01ZM714.753 3594.61V3514.61C674.442 3514.61 636.373 3529.29 607.297 3560.18L665.553 3615.01L723.809 3669.84C722.867 3670.84 720.884 3672.45 718.094 3673.61C715.426 3674.71 713.942 3674.61 714.753 3674.61V3594.61ZM665.553 3615.01L607.297 3560.18C576.886 3592.49 566.353 3633.05 566.353 3671.41H646.353H726.353C726.353 3666.41 727.03 3664.66 726.885 3665.09C726.803 3665.33 726.54 3666.02 725.976 3666.97C725.406 3667.93 724.67 3668.92 723.809 3669.84L665.553 3615.01ZM646.353 3671.41H566.353C566.353 3709.88 576.715 3750.4 606.511 3782.99L665.553 3729.01L724.595 3675.03C725.334 3675.84 725.947 3676.69 726.406 3677.48C726.858 3678.26 727.032 3678.76 727.048 3678.81C727.06 3678.85 726.353 3676.72 726.353 3671.41H646.353ZM665.553 3729.01L607.297 3783.84C636.373 3814.73 674.442 3829.41 714.753 3829.41V3749.41V3669.41C713.942 3669.41 715.426 3669.3 718.094 3670.41C720.884 3671.57 722.867 3673.18 723.809 3674.18L665.553 3729.01ZM1470.16 3540.01L1413.12 3596.1L1413.36 3596.34L1413.59 3596.58L1470.16 3540.01ZM1506.16 3834.61V3914.61H1586.16V3834.61H1506.16ZM1392.16 3834.61H1312.16V3914.61H1392.16V3834.61ZM1378.96 3616.81L1315.81 3665.92L1316.37 3666.64L1316.94 3667.34L1378.96 3616.81ZM1301.56 3618.61L1362.02 3671L1362.02 3671L1301.56 3618.61ZM1285.96 3834.61V3914.61H1365.96V3834.61H1285.96ZM1171.96 3834.61H1091.96V3914.61H1171.96V3834.61ZM1065.16 3834.61V3914.61H1145.16V3834.61H1065.16ZM951.162 3834.61H871.162V3914.61H951.162V3834.61ZM951.162 3509.41V3429.41H871.162V3509.41H951.162ZM1059.76 3509.41H1139.76V3429.41H1059.76V3509.41ZM1059.76 3543.61H979.763V3750.54L1118.96 3597.42L1059.76 3543.61ZM1102.36 3514.21L1131.45 3588.73L1131.91 3588.55L1132.38 3588.36L1102.36 3514.21ZM1218.16 3516.61L1251.99 3444.11L1251.99 3444.11L1218.16 3516.61ZM1261.96 3555.01L1194.92 3598.66L1256.08 3692.58L1325.03 3604.23L1261.96 3555.01ZM1310.56 3517.21L1277.8 3444.23L1277.8 3444.23L1310.56 3517.21ZM1374.76 3504.01V3584.01C1397.66 3584.01 1407.36 3590.24 1413.12 3596.1L1470.16 3540.01L1527.2 3483.92C1485.77 3441.78 1431.86 3424.01 1374.76 3424.01V3504.01ZM1470.16 3540.01L1413.59 3596.58C1417.19 3600.17 1426.16 3612.32 1426.16 3648.61H1506.16H1586.16C1586.16 3588.1 1571.14 3527.85 1526.73 3483.44L1470.16 3540.01ZM1506.16 3648.61H1426.16V3834.61H1506.16H1586.16V3648.61H1506.16ZM1506.16 3834.61V3754.61H1392.16V3834.61V3914.61H1506.16V3834.61ZM1392.16 3834.61H1472.16V3667.21H1392.16H1312.16V3834.61H1392.16ZM1392.16 3667.21H1472.16C1472.16 3636.86 1466.8 3597.96 1440.98 3566.27L1378.96 3616.81L1316.94 3667.34C1312.56 3661.96 1311.48 3657.8 1311.47 3657.78C1311.46 3657.72 1311.64 3658.43 1311.83 3660.07C1312.01 3661.7 1312.16 3664.05 1312.16 3667.21H1392.16ZM1378.96 3616.81L1442.11 3567.69C1416.3 3534.5 1379.32 3520.61 1342.96 3520.61V3600.61V3680.61C1341.52 3680.61 1336.89 3680.34 1330.83 3677.61C1324.45 3674.74 1319.3 3670.4 1315.81 3665.92L1378.96 3616.81ZM1342.96 3600.61V3520.61C1304.74 3520.61 1268.07 3535.1 1241.11 3566.21L1301.56 3618.61L1362.02 3671C1359.83 3673.53 1356.28 3676.44 1351.61 3678.47C1347.11 3680.43 1343.78 3680.61 1342.96 3680.61V3600.61ZM1301.56 3618.61L1241.11 3566.21C1212.86 3598.81 1205.96 3639.46 1205.96 3673.21H1285.96H1365.96C1365.96 3669.92 1366.14 3667.47 1366.35 3665.76C1366.56 3664.05 1366.77 3663.27 1366.78 3663.24C1366.79 3663.23 1365.79 3666.66 1362.02 3671L1301.56 3618.61ZM1285.96 3673.21H1205.96V3834.61H1285.96H1365.96V3673.21H1285.96ZM1285.96 3834.61V3754.61H1171.96V3834.61V3914.61H1285.96V3834.61ZM1171.96 3834.61H1251.96V3667.21H1171.96H1091.96V3834.61H1171.96ZM1171.96 3667.21H1251.96C1251.96 3637.5 1246.89 3600.7 1224.01 3569.72C1197.78 3534.22 1159.14 3520.61 1122.76 3520.61V3600.61V3680.61C1122.01 3680.61 1117.55 3680.48 1111.38 3677.69C1104.76 3674.7 1099.16 3670 1095.32 3664.79C1091.82 3660.06 1091.09 3656.72 1091.21 3657.2C1091.34 3657.74 1091.96 3660.77 1091.96 3667.21H1171.96ZM1122.76 3600.61V3520.61C1084.78 3520.61 1047.66 3534.66 1020.31 3566.21L1080.76 3618.61L1141.22 3671C1138.84 3673.75 1135.17 3676.67 1130.58 3678.64C1126.19 3680.52 1123.13 3680.61 1122.76 3680.61V3600.61ZM1080.76 3618.61L1020.31 3566.21C992.056 3598.81 985.163 3639.46 985.163 3673.21H1065.16H1145.16C1145.16 3669.92 1145.34 3667.47 1145.55 3665.76C1145.76 3664.05 1145.97 3663.27 1145.98 3663.24C1145.99 3663.23 1144.99 3666.66 1141.22 3671L1080.76 3618.61ZM1065.16 3673.21H985.163V3834.61H1065.16H1145.16V3673.21H1065.16ZM1065.16 3834.61V3754.61H951.162V3834.61V3914.61H1065.16V3834.61ZM951.162 3834.61H1031.16V3509.41H951.162H871.162V3834.61H951.162ZM951.162 3509.41V3589.41H1059.76V3509.41V3429.41H951.162V3509.41ZM1059.76 3509.41H979.763V3543.61H1059.76H1139.76V3509.41H1059.76ZM1059.76 3543.61L1118.96 3597.42C1122.77 3593.23 1126.7 3590.58 1131.45 3588.73L1102.36 3514.21L1073.28 3439.68C1045.22 3450.63 1020.76 3467.59 1000.57 3489.79L1059.76 3543.61ZM1102.36 3514.21L1132.38 3588.36C1138.89 3585.73 1146.81 3584.01 1156.96 3584.01V3504.01V3424.01C1127.92 3424.01 1099.44 3429.09 1072.35 3440.05L1102.36 3514.21ZM1156.96 3504.01V3584.01C1169.8 3584.01 1178.38 3586.33 1184.33 3589.1L1218.16 3516.61L1251.99 3444.11C1221.94 3430.09 1189.73 3424.01 1156.96 3424.01V3504.01ZM1218.16 3516.61L1184.33 3589.1C1188.32 3590.96 1191.59 3593.55 1194.92 3598.66L1261.96 3555.01L1329 3511.35C1309.93 3482.07 1284.01 3459.05 1251.99 3444.11L1218.16 3516.61ZM1261.96 3555.01L1325.03 3604.23C1329.55 3598.44 1335.21 3593.84 1343.33 3590.19L1310.56 3517.21L1277.8 3444.23C1246.72 3458.18 1219.98 3478.78 1198.9 3505.79L1261.96 3555.01ZM1310.56 3517.21L1343.33 3590.19C1351.82 3586.38 1361.94 3584.01 1374.76 3584.01V3504.01V3424.01C1341.18 3424.01 1308.5 3430.44 1277.8 3444.23L1310.56 3517.21ZM1938.72 3454.21L1878.14 3506.46L1878.3 3506.65L1878.46 3506.83L1938.72 3454.21ZM1980.12 3834.61V3914.61H2060.12V3834.61H1980.12ZM1861.32 3834.61H1781.32V3914.61H1861.32V3834.61ZM1840.92 3526.81L1781.21 3580.06L1781.61 3580.5L1782.01 3580.94L1840.92 3526.81ZM1725.12 3528.61L1782.41 3584.44L1782.77 3584.08L1783.12 3583.71L1725.12 3528.61ZM1702.32 3834.61V3914.61H1782.32V3834.61H1702.32ZM1583.52 3834.61H1503.52V3914.61H1583.52V3834.61ZM1583.52 3414.61V3334.61H1503.52V3414.61H1583.52ZM1698.72 3414.61H1778.72V3334.61H1698.72V3414.61ZM1698.72 3462.61H1618.72V3701.26L1762.55 3510.83L1698.72 3462.61ZM1822.32 3406.21V3486.21C1853.74 3486.21 1868.55 3495.35 1878.14 3506.46L1938.72 3454.21L1999.3 3401.96C1953.68 3349.07 1890.89 3326.21 1822.32 3326.21V3406.21ZM1938.72 3454.21L1878.46 3506.83C1889.03 3518.94 1900.12 3542.63 1900.12 3589.81H1980.12H2060.12C2060.12 3519.38 2043.6 3452.68 1998.97 3401.58L1938.72 3454.21ZM1980.12 3589.81H1900.12V3834.61H1980.12H2060.12V3589.81H1980.12ZM1980.12 3834.61V3754.61H1861.32V3834.61V3914.61H1980.12V3834.61ZM1861.32 3834.61H1941.32V3593.41H1861.32H1781.32V3834.61H1861.32ZM1861.32 3593.41H1941.32C1941.32 3553.07 1932.19 3507.91 1899.82 3472.68L1840.92 3526.81L1782.01 3580.94C1779.57 3578.28 1779.28 3576.54 1779.72 3577.99C1780.26 3579.74 1781.32 3584.48 1781.32 3593.41H1861.32ZM1840.92 3526.81L1900.62 3473.56C1869.09 3438.2 1826.71 3424.61 1785.12 3424.61V3504.61V3584.61C1788.96 3584.61 1789.27 3585.2 1787.49 3584.49C1786.6 3584.14 1785.45 3583.56 1784.21 3582.69C1782.97 3581.83 1781.96 3580.89 1781.21 3580.06L1840.92 3526.81ZM1785.12 3504.61V3424.61C1741.37 3424.61 1699.36 3439.57 1667.12 3473.51L1725.12 3528.61L1783.12 3583.71C1783.15 3583.67 1782.94 3583.9 1782.48 3584.21C1782.02 3584.52 1781.57 3584.75 1781.23 3584.89C1780.9 3585.02 1780.93 3584.96 1781.48 3584.86C1782.04 3584.76 1783.21 3584.61 1785.12 3584.61V3504.61ZM1725.12 3528.61L1667.82 3472.78C1632.62 3508.9 1622.32 3556.33 1622.32 3599.41H1702.32H1782.32C1782.32 3589.76 1783.51 3584.58 1784.16 3582.53C1784.71 3580.85 1784.55 3582.24 1782.41 3584.44L1725.12 3528.61ZM1702.32 3599.41H1622.32V3834.61H1702.32H1782.32V3599.41H1702.32ZM1702.32 3834.61V3754.61H1583.52V3834.61V3914.61H1702.32V3834.61ZM1583.52 3834.61H1663.52V3414.61H1583.52H1503.52V3834.61H1583.52ZM1583.52 3414.61V3494.61H1698.72V3414.61V3334.61H1583.52V3414.61ZM1698.72 3414.61H1618.72V3462.61H1698.72H1778.72V3414.61H1698.72ZM1698.72 3462.61L1762.55 3510.83C1773.48 3496.35 1789.23 3486.21 1822.32 3486.21V3406.21V3326.21C1747.4 3326.21 1680.75 3353.67 1634.88 3414.39L1698.72 3462.61ZM2124.07 3818.41L2160.66 3747.27V3747.27L2124.07 3818.41ZM2058.07 3758.41L1989.75 3800.04L1989.99 3800.42L1990.23 3800.81L2058.07 3758.41ZM2058.07 3585.01L1990.23 3542.61L1989.99 3542.99L1989.75 3543.38L2058.07 3585.01ZM2123.47 3525.61L2159.66 3596.95L2159.86 3596.85L2160.06 3596.75L2123.47 3525.61ZM2313.07 3525.61L2276.48 3596.75L2276.89 3596.96L2277.29 3597.16L2313.07 3525.61ZM2378.47 3585.01L2310.15 3626.64L2310.3 3626.88L2310.45 3627.12L2378.47 3585.01ZM2378.47 3758.41L2310.15 3716.78V3716.78L2378.47 3758.41ZM2313.07 3818.41L2276.48 3747.27V3747.27L2313.07 3818.41ZM2267.47 3729.01L2325.72 3783.84L2326.12 3783.42L2326.51 3782.99L2267.47 3729.01ZM2267.47 3615.01L2325.72 3560.18H2325.72L2267.47 3615.01ZM2169.07 3615.01L2110.81 3560.18V3560.18L2169.07 3615.01ZM2169.07 3729.01L2110.03 3782.99L2110.42 3783.42L2110.81 3783.84L2169.07 3729.01ZM2218.27 3840.01V3760.01C2194.83 3760.01 2176.19 3755.25 2160.66 3747.27L2124.07 3818.41L2087.48 3889.55C2127.95 3910.36 2172.1 3920.01 2218.27 3920.01V3840.01ZM2124.07 3818.41L2160.66 3747.27C2144.9 3739.16 2133.93 3728.85 2125.91 3716.01L2058.07 3758.41L1990.23 3800.81C2014.2 3839.17 2047.24 3868.86 2087.48 3889.55L2124.07 3818.41ZM2058.07 3758.41L2126.38 3716.78C2119.04 3704.73 2114.67 3690.35 2114.67 3671.41H2034.67H1954.67C1954.67 3717.26 1965.9 3760.89 1989.75 3800.04L2058.07 3758.41ZM2034.67 3671.41H2114.67C2114.67 3653.06 2118.95 3638.85 2126.38 3626.64L2058.07 3585.01L1989.75 3543.38C1965.99 3582.37 1954.67 3625.75 1954.67 3671.41H2034.67ZM2058.07 3585.01L2125.91 3627.41C2133.99 3614.48 2144.7 3604.54 2159.66 3596.95L2123.47 3525.61L2087.28 3454.26C2047.03 3474.68 2014.15 3504.34 1990.23 3542.61L2058.07 3585.01ZM2123.47 3525.61L2160.06 3596.75C2175.46 3588.83 2194.27 3584.01 2218.27 3584.01V3504.01V3424.01C2171.86 3424.01 2127.48 3433.59 2086.88 3454.47L2123.47 3525.61ZM2218.27 3504.01V3584.01C2242.26 3584.01 2261.08 3588.83 2276.48 3596.75L2313.07 3525.61L2349.66 3454.47C2309.06 3433.59 2264.67 3424.01 2218.27 3424.01V3504.01ZM2313.07 3525.61L2277.29 3597.16C2292.47 3604.75 2302.73 3614.45 2310.15 3626.64L2378.47 3585.01L2446.78 3543.38C2423.01 3504.36 2389.66 3474.46 2348.85 3454.05L2313.07 3525.61ZM2378.47 3585.01L2310.45 3627.12C2317.49 3638.5 2321.87 3652.45 2321.87 3671.41H2401.87H2481.87C2481.87 3625.57 2470.64 3581.92 2446.49 3542.9L2378.47 3585.01ZM2401.87 3671.41H2321.87C2321.87 3690.35 2317.5 3704.73 2310.15 3716.78L2378.47 3758.41L2446.78 3800.04C2470.64 3760.89 2481.87 3717.26 2481.87 3671.41H2401.87ZM2378.47 3758.41L2310.15 3716.78C2302.61 3729.16 2292.08 3739.24 2276.48 3747.27L2313.07 3818.41L2349.66 3889.55C2390.06 3868.77 2423.13 3838.85 2446.78 3800.04L2378.47 3758.41ZM2313.07 3818.41L2276.48 3747.27C2261.08 3755.19 2242.26 3760.01 2218.27 3760.01V3840.01V3920.01C2264.67 3920.01 2309.06 3910.43 2349.66 3889.55L2313.07 3818.41ZM2218.27 3749.41V3829.41C2258.58 3829.41 2296.65 3814.73 2325.72 3783.84L2267.47 3729.01L2209.21 3674.18C2210.15 3673.18 2212.14 3671.57 2214.93 3670.41C2217.6 3669.3 2219.08 3669.41 2218.27 3669.41V3749.41ZM2267.47 3729.01L2326.51 3782.99C2356.31 3750.4 2366.67 3709.88 2366.67 3671.41H2286.67H2206.67C2206.67 3676.72 2205.96 3678.85 2205.97 3678.81C2205.99 3678.76 2206.16 3678.26 2206.62 3677.48C2207.07 3676.69 2207.69 3675.84 2208.43 3675.03L2267.47 3729.01ZM2286.67 3671.41H2366.67C2366.67 3633.05 2356.14 3592.49 2325.72 3560.18L2267.47 3615.01L2209.21 3669.84C2208.35 3668.92 2207.62 3667.93 2207.05 3666.97C2206.48 3666.02 2206.22 3665.33 2206.14 3665.09C2205.99 3664.66 2206.67 3666.41 2206.67 3671.41H2286.67ZM2267.47 3615.01L2325.72 3560.18C2296.65 3529.29 2258.58 3514.61 2218.27 3514.61V3594.61V3674.61C2219.08 3674.61 2217.6 3674.71 2214.93 3673.61C2212.14 3672.45 2210.15 3670.84 2209.21 3669.84L2267.47 3615.01ZM2218.27 3594.61V3514.61C2177.96 3514.61 2139.89 3529.29 2110.81 3560.18L2169.07 3615.01L2227.32 3669.84C2226.38 3670.84 2224.4 3672.45 2221.61 3673.61C2218.94 3674.71 2217.46 3674.61 2218.27 3674.61V3594.61ZM2169.07 3615.01L2110.81 3560.18C2080.4 3592.49 2069.87 3633.05 2069.87 3671.41H2149.87H2229.87C2229.87 3666.41 2230.55 3664.66 2230.4 3665.09C2230.32 3665.33 2230.06 3666.02 2229.49 3666.97C2228.92 3667.93 2228.19 3668.92 2227.32 3669.84L2169.07 3615.01ZM2149.87 3671.41H2069.87C2069.87 3709.88 2080.23 3750.4 2110.03 3782.99L2169.07 3729.01L2228.11 3675.03C2228.85 3675.84 2229.46 3676.69 2229.92 3677.48C2230.37 3678.26 2230.55 3678.76 2230.56 3678.81C2230.58 3678.85 2229.87 3676.72 2229.87 3671.41H2149.87ZM2169.07 3729.01L2110.81 3783.84C2139.89 3814.73 2177.96 3829.41 2218.27 3829.41V3749.41V3669.41C2217.46 3669.41 2218.94 3669.3 2221.61 3670.41C2224.4 3671.57 2226.38 3673.18 2227.32 3674.18L2169.07 3729.01ZM2973.68 3540.01L2916.64 3596.1L2916.87 3596.34L2917.11 3596.58L2973.68 3540.01ZM3009.68 3834.61V3914.61H3089.68V3834.61H3009.68ZM2895.68 3834.61H2815.68V3914.61H2895.68V3834.61ZM2882.48 3616.81L2819.33 3665.92L2819.89 3666.64L2820.46 3667.34L2882.48 3616.81ZM2805.08 3618.61L2865.53 3671V3671L2805.08 3618.61ZM2789.48 3834.61V3914.61H2869.48V3834.61H2789.48ZM2675.48 3834.61H2595.48V3914.61H2675.48V3834.61ZM2568.68 3834.61V3914.61H2648.68V3834.61H2568.68ZM2454.68 3834.61H2374.68V3914.61H2454.68V3834.61ZM2454.68 3509.41V3429.41H2374.68V3509.41H2454.68ZM2563.28 3509.41H2643.28V3429.41H2563.28V3509.41ZM2563.28 3543.61H2483.28V3750.54L2622.47 3597.42L2563.28 3543.61ZM2605.88 3514.21L2634.96 3588.73L2635.43 3588.55L2635.89 3588.36L2605.88 3514.21ZM2721.68 3516.61L2755.51 3444.11V3444.11L2721.68 3516.61ZM2765.48 3555.01L2698.44 3598.66L2759.59 3692.58L2828.54 3604.23L2765.48 3555.01ZM2814.08 3517.21L2781.31 3444.23V3444.23L2814.08 3517.21ZM2878.28 3504.01V3584.01C2901.18 3584.01 2910.87 3590.24 2916.64 3596.1L2973.68 3540.01L3030.72 3483.92C2989.28 3441.78 2935.38 3424.01 2878.28 3424.01V3504.01ZM2973.68 3540.01L2917.11 3596.58C2920.7 3600.17 2929.68 3612.32 2929.68 3648.61H3009.68H3089.68C3089.68 3588.1 3074.65 3527.85 3030.25 3483.44L2973.68 3540.01ZM3009.68 3648.61H2929.68V3834.61H3009.68H3089.68V3648.61H3009.68ZM3009.68 3834.61V3754.61H2895.68V3834.61V3914.61H3009.68V3834.61ZM2895.68 3834.61H2975.68V3667.21H2895.68H2815.68V3834.61H2895.68ZM2895.68 3667.21H2975.68C2975.68 3636.86 2970.31 3597.96 2944.5 3566.27L2882.48 3616.81L2820.46 3667.34C2816.08 3661.96 2814.99 3657.8 2814.99 3657.78C2814.97 3657.72 2815.16 3658.43 2815.34 3660.07C2815.52 3661.7 2815.68 3664.05 2815.68 3667.21H2895.68ZM2882.48 3616.81L2945.63 3567.69C2919.81 3534.5 2882.84 3520.61 2846.48 3520.61V3600.61V3680.61C2845.03 3680.61 2840.41 3680.34 2834.35 3677.61C2827.97 3674.74 2822.81 3670.4 2819.33 3665.92L2882.48 3616.81ZM2846.48 3600.61V3520.61C2808.26 3520.61 2771.59 3535.1 2744.62 3566.21L2805.08 3618.61L2865.53 3671C2863.34 3673.53 2859.8 3676.44 2855.13 3678.47C2850.62 3680.43 2847.29 3680.61 2846.48 3680.61V3600.61ZM2805.08 3618.61L2744.62 3566.21C2716.37 3598.81 2709.48 3639.46 2709.48 3673.21H2789.48H2869.48C2869.48 3669.92 2869.66 3667.47 2869.86 3665.76C2870.07 3664.05 2870.29 3663.27 2870.3 3663.24C2870.3 3663.23 2869.3 3666.66 2865.53 3671L2805.08 3618.61ZM2789.48 3673.21H2709.48V3834.61H2789.48H2869.48V3673.21H2789.48ZM2789.48 3834.61V3754.61H2675.48V3834.61V3914.61H2789.48V3834.61ZM2675.48 3834.61H2755.48V3667.21H2675.48H2595.48V3834.61H2675.48ZM2675.48 3667.21H2755.48C2755.48 3637.5 2750.41 3600.7 2727.52 3569.72C2701.29 3534.22 2662.66 3520.61 2626.28 3520.61V3600.61V3680.61C2625.52 3680.61 2621.07 3680.48 2614.9 3677.69C2608.28 3674.7 2602.68 3670 2598.83 3664.79C2595.33 3660.06 2594.61 3656.72 2594.72 3657.2C2594.86 3657.74 2595.48 3660.77 2595.48 3667.21H2675.48ZM2626.28 3600.61V3520.61C2588.3 3520.61 2551.17 3534.66 2523.82 3566.21L2584.28 3618.61L2644.73 3671C2642.36 3673.75 2638.69 3676.67 2634.09 3678.64C2629.71 3680.52 2626.64 3680.61 2626.28 3680.61V3600.61ZM2584.28 3618.61L2523.82 3566.21C2495.57 3598.81 2488.68 3639.46 2488.68 3673.21H2568.68H2648.68C2648.68 3669.92 2648.86 3667.47 2649.06 3665.76C2649.27 3664.05 2649.49 3663.27 2649.5 3663.24C2649.5 3663.23 2648.5 3666.66 2644.73 3671L2584.28 3618.61ZM2568.68 3673.21H2488.68V3834.61H2568.68H2648.68V3673.21H2568.68ZM2568.68 3834.61V3754.61H2454.68V3834.61V3914.61H2568.68V3834.61ZM2454.68 3834.61H2534.68V3509.41H2454.68H2374.68V3834.61H2454.68ZM2454.68 3509.41V3589.41H2563.28V3509.41V3429.41H2454.68V3509.41ZM2563.28 3509.41H2483.28V3543.61H2563.28H2643.28V3509.41H2563.28ZM2563.28 3543.61L2622.47 3597.42C2626.28 3593.23 2630.22 3590.58 2634.96 3588.73L2605.88 3514.21L2576.79 3439.68C2548.74 3450.63 2524.27 3467.59 2504.08 3489.79L2563.28 3543.61ZM2605.88 3514.21L2635.89 3588.36C2642.4 3585.73 2650.32 3584.01 2660.48 3584.01V3504.01V3424.01C2631.43 3424.01 2602.95 3429.09 2575.86 3440.05L2605.88 3514.21ZM2660.48 3504.01V3584.01C2673.31 3584.01 2681.9 3586.33 2687.85 3589.1L2721.68 3516.61L2755.51 3444.11C2725.46 3430.09 2693.24 3424.01 2660.48 3424.01V3504.01ZM2721.68 3516.61L2687.85 3589.1C2691.83 3590.96 2695.11 3593.55 2698.44 3598.66L2765.48 3555.01L2832.52 3511.35C2813.45 3482.07 2787.52 3459.05 2755.51 3444.11L2721.68 3516.61ZM2765.48 3555.01L2828.54 3604.23C2833.06 3598.44 2838.72 3593.84 2846.85 3590.19L2814.08 3517.21L2781.31 3444.23C2750.23 3458.18 2723.5 3478.78 2702.41 3505.79L2765.48 3555.01ZM2814.08 3517.21L2846.85 3590.19C2855.34 3586.38 2865.46 3584.01 2878.28 3584.01V3504.01V3424.01C2844.7 3424.01 2812.02 3430.44 2781.31 3444.23L2814.08 3517.21ZM3081.03 3820.81L3136.72 3763.38V3763.38L3081.03 3820.81ZM3080.43 3723.61L3025.66 3665.3L3025.21 3665.72L3024.77 3666.15L3080.43 3723.61ZM3178.83 3723.61L3123.17 3781.07V3781.07L3178.83 3723.61ZM3178.23 3820.81L3122.54 3763.38L3122.1 3763.8L3121.66 3764.24L3178.23 3820.81ZM3129.63 3840.01V3760.01C3129.06 3760.01 3130.3 3759.95 3132.48 3760.8C3134.71 3761.69 3136.19 3762.86 3136.72 3763.38L3081.03 3820.81L3025.34 3878.24C3054.18 3906.21 3090.66 3920.01 3129.63 3920.01V3840.01ZM3081.03 3820.81L3136.72 3763.38C3137.66 3764.29 3139.18 3766.19 3140.27 3768.87C3141.32 3771.45 3141.23 3772.9 3141.23 3772.21H3061.23H2981.23C2981.23 3811.86 2995.5 3849.3 3025.34 3878.24L3081.03 3820.81ZM3061.23 3772.21H3141.23C3141.23 3770.8 3141.44 3771.91 3140.44 3774.45C3139.36 3777.18 3137.67 3779.54 3136.09 3781.07L3080.43 3723.61L3024.77 3666.15C2994.44 3695.53 2981.23 3733.46 2981.23 3772.21H3061.23ZM3080.43 3723.61L3135.21 3781.92C3134.88 3782.22 3134.31 3782.69 3133.5 3783.21C3132.67 3783.73 3131.79 3784.16 3130.92 3784.49C3129.08 3785.19 3128.36 3785.01 3129.63 3785.01V3705.01V3625.01C3091.51 3625.01 3054.97 3637.76 3025.66 3665.3L3080.43 3723.61ZM3129.63 3705.01V3785.01C3131.31 3785.01 3130.66 3785.25 3128.64 3784.49C3127.67 3784.12 3126.62 3783.61 3125.58 3782.94C3124.54 3782.28 3123.73 3781.61 3123.17 3781.07L3178.83 3723.61L3234.49 3666.15C3204.9 3637.48 3167.65 3625.01 3129.63 3625.01V3705.01ZM3178.83 3723.61L3123.17 3781.07C3121.59 3779.54 3119.91 3777.18 3118.83 3774.45C3117.82 3771.91 3118.03 3770.8 3118.03 3772.21H3198.03H3278.03C3278.03 3733.46 3264.82 3695.53 3234.49 3666.15L3178.83 3723.61ZM3198.03 3772.21H3118.03C3118.03 3772.9 3117.95 3771.45 3118.99 3768.87C3120.09 3766.19 3121.6 3764.29 3122.54 3763.38L3178.23 3820.81L3233.92 3878.24C3263.77 3849.3 3278.03 3811.86 3278.03 3772.21H3198.03ZM3178.23 3820.81L3121.66 3764.24C3122.69 3763.21 3124.6 3761.79 3127.09 3760.8C3129.45 3759.87 3130.62 3760.01 3129.63 3760.01V3840.01V3920.01C3168.51 3920.01 3205.68 3906.5 3234.8 3877.38L3178.23 3820.81ZM3251.55 3509.41V3429.41H3171.55V3509.41H3251.55ZM3365.55 3509.41H3445.55V3429.41H3365.55V3509.41ZM3365.55 3834.61V3914.61H3445.55V3834.61H3365.55ZM3251.55 3834.61H3171.55V3914.61H3251.55V3834.61ZM3258.15 3456.01L3311.87 3396.73V3396.73L3258.15 3456.01ZM3258.15 3369.61L3311.87 3428.89V3428.89L3258.15 3369.61ZM3358.95 3369.01L3306.27 3429.21L3306.81 3429.69L3307.36 3430.15L3358.95 3369.01ZM3358.95 3456.01L3412.67 3515.29L3413.18 3514.83L3413.67 3514.37L3358.95 3456.01ZM3251.55 3509.41V3589.41H3365.55V3509.41V3429.41H3251.55V3509.41ZM3365.55 3509.41H3285.55V3834.61H3365.55H3445.55V3509.41H3365.55ZM3365.55 3834.61V3754.61H3251.55V3834.61V3914.61H3365.55V3834.61ZM3251.55 3834.61H3331.55V3509.41H3251.55H3171.55V3834.61H3251.55ZM3308.55 3473.41V3393.41C3305.56 3393.41 3305.17 3392.99 3306.46 3393.44C3307.1 3393.66 3308.01 3394.04 3309.04 3394.65C3310.09 3395.27 3311.05 3395.98 3311.87 3396.73L3258.15 3456.01L3204.43 3515.29C3234.83 3542.84 3272.16 3553.41 3308.55 3553.41V3473.41ZM3258.15 3456.01L3311.87 3396.73C3312.93 3397.69 3315.11 3400.09 3316.86 3404.02C3318.61 3407.95 3318.95 3411.25 3318.95 3412.81H3238.95H3158.95C3158.95 3452.7 3174.98 3488.6 3204.43 3515.29L3258.15 3456.01ZM3238.95 3412.81H3318.95C3318.95 3414.37 3318.61 3417.67 3316.86 3421.6C3315.11 3425.52 3312.93 3427.93 3311.87 3428.89L3258.15 3369.61L3204.43 3310.33C3174.98 3337.02 3158.95 3372.91 3158.95 3412.81H3238.95ZM3258.15 3369.61L3311.87 3428.89C3311.05 3429.64 3310.09 3430.35 3309.04 3430.96C3308.01 3431.57 3307.1 3431.96 3306.46 3432.18C3305.17 3432.62 3305.56 3432.21 3308.55 3432.21V3352.21V3272.21C3272.16 3272.21 3234.83 3282.78 3204.43 3310.33L3258.15 3369.61ZM3308.55 3352.21V3432.21C3311.82 3432.21 3312.49 3432.65 3311.45 3432.3C3310.93 3432.13 3310.11 3431.8 3309.11 3431.23C3308.11 3430.67 3307.14 3429.98 3306.27 3429.21L3358.95 3369.01L3411.63 3308.8C3381.18 3282.16 3344.23 3272.21 3308.55 3272.21V3352.21ZM3358.95 3369.01L3307.36 3430.15C3305.54 3428.61 3302.73 3425.53 3300.6 3420.87C3298.49 3416.27 3298.15 3412.53 3298.15 3411.01H3378.15H3458.15C3458.15 3370.97 3441.91 3334.33 3410.54 3307.87L3358.95 3369.01ZM3378.15 3411.01H3298.15C3298.15 3410.34 3298.32 3407.77 3299.77 3404.36C3301.25 3400.91 3303.17 3398.65 3304.24 3397.65L3358.95 3456.01L3413.67 3514.37C3443.07 3486.81 3458.15 3450.47 3458.15 3411.01H3378.15ZM3358.95 3456.01L3305.23 3396.73C3306.06 3395.98 3307.02 3395.27 3308.06 3394.65C3309.1 3394.04 3310 3393.66 3310.65 3393.44C3311.94 3392.99 3311.55 3393.41 3308.55 3393.41V3473.41V3553.41C3344.94 3553.41 3382.28 3542.84 3412.67 3515.29L3358.95 3456.01ZM3785.24 3389.41H3865.24V3309.41H3785.24V3389.41ZM3785.24 3834.61V3914.61H3865.24V3834.61H3785.24ZM3676.64 3834.61H3596.64V3914.61H3676.64V3834.61ZM3676.64 3802.21H3756.64V3582.84L3615.42 3750.71L3676.64 3802.21ZM3500.24 3819.61L3460.43 3889L3460.86 3889.24L3461.29 3889.49L3500.24 3819.61ZM3442.04 3760.21L3371.85 3798.59L3372.08 3799.01L3372.31 3799.43L3442.04 3760.21ZM3442.04 3583.21L3372.31 3543.99L3372.21 3544.17L3372.11 3544.36L3442.04 3583.21ZM3500.24 3524.41L3461.29 3454.53H3461.29L3500.24 3524.41ZM3671.24 3537.61L3613.14 3592.6L3751.24 3738.52V3537.61H3671.24ZM3671.24 3389.41V3309.41H3591.24V3389.41H3671.24ZM3653.84 3729.01L3712.09 3783.84L3712.49 3783.42L3712.88 3782.99L3653.84 3729.01ZM3653.84 3615.01L3594.72 3668.91L3595.15 3669.38L3595.58 3669.84L3653.84 3615.01ZM3556.04 3615.01L3614.3 3669.84V3669.84L3556.04 3615.01ZM3556.04 3729.01L3497 3782.99L3497.39 3783.42L3497.78 3783.84L3556.04 3729.01ZM3785.24 3389.41H3705.24V3834.61H3785.24H3865.24V3389.41H3785.24ZM3785.24 3834.61V3754.61H3676.64V3834.61V3914.61H3785.24V3834.61ZM3676.64 3834.61H3756.64V3802.21H3676.64H3596.64V3834.61H3676.64ZM3676.64 3802.21L3615.42 3750.71C3613.57 3752.91 3607.33 3760.01 3581.24 3760.01V3840.01V3920.01C3639.95 3920.01 3697.31 3901.91 3737.86 3853.71L3676.64 3802.21ZM3581.24 3840.01V3760.01C3564.43 3760.01 3550.97 3756.29 3539.19 3749.73L3500.24 3819.61L3461.29 3889.49C3498.31 3910.12 3538.85 3920.01 3581.24 3920.01V3840.01ZM3500.24 3819.61L3540.05 3750.22C3528.72 3743.72 3519.42 3734.6 3511.77 3720.99L3442.04 3760.21L3372.31 3799.43C3393.46 3837.02 3422.95 3867.5 3460.43 3889L3500.24 3819.61ZM3442.04 3760.21L3512.23 3721.82C3505.58 3709.67 3501.04 3693.64 3501.04 3671.41H3421.04H3341.04C3341.04 3716.37 3350.5 3759.55 3371.85 3798.59L3442.04 3760.21ZM3421.04 3671.41H3501.04C3501.04 3649.14 3505.59 3633.54 3511.97 3622.06L3442.04 3583.21L3372.11 3544.36C3350.48 3583.28 3341.04 3626.48 3341.04 3671.41H3421.04ZM3442.04 3583.21L3511.77 3622.43C3519.32 3609 3528.35 3600.32 3539.19 3594.29L3500.24 3524.41L3461.29 3454.53C3423.32 3475.69 3393.56 3506.22 3372.31 3543.99L3442.04 3583.21ZM3500.24 3524.41L3539.19 3594.29C3550.97 3587.72 3564.43 3584.01 3581.24 3584.01V3504.01V3424.01C3538.85 3424.01 3498.31 3433.89 3461.29 3454.53L3500.24 3524.41ZM3581.24 3504.01V3584.01C3604.09 3584.01 3610.74 3590.07 3613.14 3592.6L3671.24 3537.61L3729.34 3482.62C3689.34 3440.35 3635.99 3424.01 3581.24 3424.01V3504.01ZM3671.24 3537.61H3751.24V3389.41H3671.24H3591.24V3537.61H3671.24ZM3671.24 3389.41V3469.41H3785.24V3389.41V3309.41H3671.24V3389.41ZM3605.24 3749.41V3829.41C3645.67 3829.41 3683.36 3814.37 3712.09 3783.84L3653.84 3729.01L3595.58 3674.18C3596.36 3673.35 3598.26 3671.75 3601.13 3670.54C3603.9 3669.38 3605.64 3669.41 3605.24 3669.41V3749.41ZM3653.84 3729.01L3712.88 3782.99C3742.68 3750.4 3753.04 3709.88 3753.04 3671.41H3673.04H3593.04C3593.04 3676.72 3592.33 3678.85 3592.34 3678.81C3592.36 3678.76 3592.53 3678.26 3592.99 3677.48C3593.45 3676.69 3594.06 3675.84 3594.8 3675.03L3653.84 3729.01ZM3673.04 3671.41H3753.04C3753.04 3633.05 3742.51 3592.49 3712.09 3560.18L3653.84 3615.01L3595.58 3669.84C3594.72 3668.92 3593.99 3667.93 3593.42 3666.97C3592.85 3666.02 3592.59 3665.33 3592.51 3665.09C3592.36 3664.66 3593.04 3666.41 3593.04 3671.41H3673.04ZM3653.84 3615.01L3712.96 3561.11C3683.99 3529.33 3645.55 3514.61 3605.24 3514.61V3594.61V3674.61C3606.07 3674.61 3604.39 3674.72 3601.43 3673.47C3598.3 3672.16 3595.97 3670.28 3594.72 3668.91L3653.84 3615.01ZM3605.24 3594.61V3514.61C3564.93 3514.61 3526.86 3529.29 3497.78 3560.18L3556.04 3615.01L3614.3 3669.84C3613.35 3670.84 3611.37 3672.45 3608.58 3673.61C3605.91 3674.71 3604.43 3674.61 3605.24 3674.61V3594.61ZM3556.04 3615.01L3497.78 3560.18C3467.37 3592.49 3456.84 3633.05 3456.84 3671.41H3536.84H3616.84C3616.84 3666.41 3617.52 3664.66 3617.37 3665.09C3617.29 3665.33 3617.03 3666.02 3616.46 3666.97C3615.89 3667.93 3615.16 3668.92 3614.3 3669.84L3556.04 3615.01ZM3536.84 3671.41H3456.84C3456.84 3709.88 3467.2 3750.4 3497 3782.99L3556.04 3729.01L3615.08 3675.03C3615.82 3675.83 3616.43 3676.69 3616.89 3677.48C3617.34 3678.26 3617.52 3678.76 3617.53 3678.81C3617.55 3678.85 3616.84 3676.72 3616.84 3671.41H3536.84ZM3556.04 3729.01L3497.78 3783.84C3526.86 3814.73 3564.93 3829.41 3605.24 3829.41V3749.41V3669.41C3604.43 3669.41 3605.91 3669.3 3608.58 3670.41C3611.37 3671.57 3613.35 3673.18 3614.3 3674.18L3556.04 3729.01Z" fill="white" mask="url(#path-11-outside-1_12_60)"/>
</svg>
