<svg width="3651" height="3054" viewBox="0 0 3651 3054" fill="none" xmlns="http://www.w3.org/2000/svg">
<path d="M2699.41 61.6251C2698.09 77.0151 2621.73 284.965 2689.7 304.378C2757.67 323.79 2780.93 233.636 2845.07 216.987C2890.22 218.313 2903.58 235.357 2913.04 284.958C2908.85 344.196 2804.89 365.448 2747.96 372.349C2708.43 377.141 2621.73 343.226 2573.18 265.537C2524.63 187.849 2505.1 106.985 2553.76 32.4948C2598.16 -31.8485 2703.77 10.8321 2699.41 61.6251Z" fill="#E55A1F"/>
<path d="M980.727 537.415C910.095 986.047 887.751 1281.03 864.205 1848.28C787.584 1940.03 761.684 1999.18 728.264 2110.45C716.968 2268.2 728.264 2353.37 786.524 2498.86C864.645 2634.67 925.041 2695.77 1048.7 2790.16C1191.73 2886.41 1272.7 2920.17 1417.68 2964.94C1601.91 3001.69 1704.29 3015.01 1883.77 3013.49C2066.81 3002.58 2165.92 2987.04 2330.43 2926.1C2495.35 2854.7 2566.45 2805.66 2679.99 2712.48C2778.1 2621.68 2818.01 2562.97 2874.2 2450.31C2912.61 2325.61 2925.26 2254.25 2903.33 2120.16C2872.29 1987.56 2850.92 1955.23 2786.81 1848.28C2732.96 999.139 2709.03 776.197 2670.28 537.415C2649.86 474.181 2634.79 449.213 2602.31 420.894C2555.01 412.162 2517.36 452.352 2446.95 537.415C2225.72 925.231 2150.42 1111.13 2019.71 1440.46C1861.5 1431.13 1776.72 1432.8 1631.3 1440.46C1437.55 953.781 1333.31 744.119 1155.51 488.865C1119.68 454.148 1098.99 436.959 1058.41 420.894C1012.1 450.081 998.362 478.956 980.727 537.415Z" fill="#1A1A2E" stroke="white" stroke-width="80"/>
<ellipse cx="1272.03" cy="2246.38" rx="339.854" ry="339.854" fill="white"/>
<ellipse cx="2398.4" cy="2246.38" rx="339.854" ry="339.854" fill="white"/>
<line x1="2267.15" y1="2024.15" x2="2267.15" y2="2410.24" stroke="#E55A1F" stroke-width="80" stroke-linecap="round"/>
<line x1="1380" y1="2024.22" x2="1380" y2="2410.3" stroke="#E55A1F" stroke-width="80" stroke-linecap="round"/>
<line x1="662.587" y1="2454.65" x2="43.1836" y2="2506.27" stroke="#E55A1F" stroke-width="80" stroke-linecap="round"/>
<line x1="40" y1="-40" x2="661.551" y2="-40" transform="matrix(0.996546 0.0830455 0.0830454 -0.996546 2951.87 2411.47)" stroke="#E55A1F" stroke-width="80" stroke-linecap="round"/>
<line x1="156.394" y1="2941.33" x2="743.488" y2="2682.31" stroke="#E55A1F" stroke-width="80" stroke-linecap="round"/>
<line x1="40" y1="-40" x2="681.69" y2="-40" transform="matrix(-0.914918 -0.40364 -0.40364 0.914918 3515.06 2994.07)" stroke="#E55A1F" stroke-width="80" stroke-linecap="round"/>
</svg>
